<svg width="22" height="24" viewBox="0 0 22 24" fill="none" xmlns="http://www.w3.org/2000/svg">
<path d="M10.9541 0C15.0962 0 18.4541 3.35786 18.4541 7.5C18.4541 10.9208 16.163 13.8037 13.0322 14.7051C14.2755 14.9673 15.507 15.4821 16.7236 16.2588C18.1358 17.1604 19.3106 18.8815 20.1152 20.3076C20.5238 21.0318 20.8494 21.7023 21.0723 22.1914C21.1837 22.4359 21.2695 22.6359 21.3281 22.7754C21.3574 22.845 21.3802 22.8998 21.3955 22.9375C21.4032 22.9564 21.4091 22.9714 21.4131 22.9814C21.4151 22.9865 21.4169 22.9904 21.418 22.9932C21.4184 22.9943 21.4187 22.9953 21.4189 22.9961V22.9971L21.4199 22.998L20.4883 23.3633L20.4873 23.3613C20.4866 23.3594 20.486 23.3557 20.4844 23.3516C20.4811 23.3432 20.4756 23.3304 20.4688 23.3135C20.455 23.2795 20.4338 23.2287 20.4062 23.1631C20.351 23.0316 20.2691 22.8402 20.1621 22.6055C19.9479 22.1354 19.6352 21.4919 19.2441 20.7988C18.4495 19.3905 17.3744 17.8611 16.1846 17.1016C14.446 15.9918 12.7167 15.4832 10.9912 15.5C9.26256 15.5169 7.50203 16.0619 5.70605 17.1123C4.43469 17.8561 3.2387 19.3907 2.33984 20.8047C1.89702 21.5014 1.53809 22.15 1.29004 22.624C1.16614 22.8608 1.06952 23.0537 1.00488 23.1865C0.972623 23.2528 0.948811 23.3045 0.932617 23.3389C0.92457 23.3559 0.917976 23.3685 0.914062 23.377C0.912103 23.3812 0.91105 23.3848 0.910156 23.3867L0.90918 23.3887H0.908203L0 22.9727V22.9707C0.000360467 22.9699 0.00134416 22.9691 0.00195312 22.9678C0.00320608 22.9651 0.00454422 22.961 0.00683594 22.9561C0.0115323 22.9459 0.0184339 22.931 0.0273438 22.9121C0.045224 22.8742 0.0722455 22.8193 0.106445 22.749C0.17486 22.6085 0.274442 22.4064 0.40332 22.1602C0.660811 21.6681 1.03364 20.9946 1.49512 20.2686C2.40502 18.8371 3.70937 17.1221 5.20215 16.249C6.45021 15.5191 7.706 15.0058 8.9668 14.7314C5.78945 13.8603 3.4541 10.9539 3.4541 7.5C3.4541 3.35786 6.81197 0 10.9541 0ZM10.9541 1C7.36425 1 4.4541 3.91015 4.4541 7.5C4.4541 11.0899 7.36425 14 10.9541 14C14.544 14 17.4541 11.0899 17.4541 7.5C17.4541 3.91015 14.544 1 10.9541 1Z" fill="black"/>
</svg>
