<svg width="29" height="28" viewBox="0 0 29 28" fill="none" xmlns="http://www.w3.org/2000/svg">
<path d="M12.7217 0.121971C15.9341 -0.417283 18.3805 0.980066 19.0879 1.42373L19.0947 1.42861L19.3691 1.60732L19.3789 1.61318C20.245 2.20563 22.3928 3.91148 23.085 6.88271C23.4537 8.46653 23.1716 10.1153 22.8086 11.3593C22.4864 12.463 22.068 13.3461 21.8555 13.7382V13.7519L21.7842 13.871C20.9971 15.1871 20.6682 15.6686 20.0479 16.4999H23.0732L23.209 16.7851L28.209 27.2851L28.5498 27.9999H0L0.297852 27.3026L4.79785 16.8026L4.92773 16.4999H8.39453C8.26969 16.3464 8.13705 16.1831 7.99609 16.0097C7.7272 15.6784 7.27408 15.1236 6.79492 14.3231L6.79004 14.3163L6.5918 13.9726L6.58984 13.9677V13.9687C6.58877 13.9668 6.58549 13.9603 6.58203 13.954H6.58105C6.57878 13.9499 6.57662 13.9459 6.5752 13.9433C6.57378 13.9406 6.57234 13.9374 6.57129 13.9354C6.56901 13.9312 6.56718 13.9279 6.56543 13.9247C6.55147 13.899 6.52922 13.855 6.51074 13.8202C6.46452 13.7331 6.39885 13.6091 6.3252 13.4608C6.21657 13.2422 6.08422 12.9611 5.95996 12.663L5.83984 12.3612C5.10949 10.4168 5.18442 8.58302 5.43164 7.25478C5.55555 6.58928 5.72439 6.04061 5.86426 5.6542C5.93421 5.461 5.99682 5.30666 6.04395 5.19814L6.10254 5.06826C6.1074 5.05786 6.11193 5.04862 6.11523 5.04189C6.1167 5.0389 6.11826 5.03495 6.11914 5.0331L6.12109 5.03115V5.03017C6.12304 5.02585 6.12562 5.02122 6.12793 5.0165H6.12695C6.1274 5.01558 6.12838 5.01449 6.12891 5.01357L6.16699 4.9374L6.17285 4.93056C6.51187 4.28452 8.48826 0.832565 12.7217 0.121971ZM5.58789 17.4999L1.5166 26.9999H26.9658L22.4424 17.4999H19.3008C19.0106 17.8853 18.6619 18.3467 18.2334 18.9257L18.2324 18.9247C17.8478 19.4447 17.5142 19.9358 17.2119 20.3866C16.9156 20.8285 16.6338 21.2565 16.375 21.6093C16.1534 21.9113 15.9072 22.2176 15.6328 22.4608L15.5137 22.5604C15.2978 22.7314 15.0262 22.8875 14.7051 22.9579L14.6084 23.0585L14.3555 23.0214L14.1094 22.9853L14.1084 22.9843C13.9825 22.9656 13.8225 22.9268 13.6465 22.829V22.828C13.4962 22.7443 13.3703 22.6382 13.2666 22.5399V22.539C13.1654 22.4429 13.0469 22.3177 12.9043 22.1562L12.3945 21.5556C11.9174 20.9777 11.6054 20.6003 11.2568 20.1386L11.2539 20.1337L10.8926 19.6425L10.8887 19.6376C10.4484 19.0234 10.5631 19.1659 9.20703 17.4999H5.58789ZM18.5566 2.27138C17.9201 1.87209 15.7365 0.63016 12.8877 1.1083C8.94071 1.77072 7.18157 5.14776 7.02637 5.45693L7.00781 5.49111L7.00879 5.49209L6.96191 5.59658C6.92204 5.68839 6.86575 5.82269 6.80371 5.99404C6.67903 6.33848 6.52639 6.83499 6.41406 7.43838C6.18951 8.6451 6.1271 10.2836 6.77539 12.0097L6.88281 12.2802C6.99484 12.5488 7.11822 12.8073 7.22168 13.0155C7.29017 13.1534 7.35007 13.2695 7.39355 13.3515C7.41978 13.4009 7.43308 13.4255 7.44434 13.4462C7.44741 13.4518 7.4499 13.4576 7.45215 13.4618C7.45368 13.4643 7.45556 13.4683 7.45801 13.4726L7.65723 13.8163H7.65625C8.09531 14.5487 8.5093 15.0547 8.77246 15.3788C11.4048 18.6179 11.1362 18.268 11.6973 19.0507L12.0547 19.537H12.0557C12.3886 19.978 12.6861 20.3376 13.166 20.9188L13.6533 21.495C13.7806 21.6392 13.8771 21.7412 13.9531 21.8134H13.9541C14.0297 21.885 14.086 21.9283 14.1318 21.954C14.1778 21.9796 14.2161 21.9894 14.2529 21.995H14.2539L14.3184 22.0038L14.4121 21.995C14.5704 21.9796 14.7309 21.9052 14.8926 21.7772L15.0537 21.6337C15.217 21.4738 15.3865 21.2653 15.5684 21.0175C15.811 20.6867 16.0771 20.2843 16.3818 19.83C16.6866 19.3756 17.0302 18.8688 17.4287 18.33C19.6302 15.3552 19.6547 15.4792 20.876 13.4413L20.9258 13.3563C21.0546 13.1405 21.5078 12.2509 21.8496 11.08C22.1918 9.90742 22.4229 8.45143 22.1104 7.10928C21.5028 4.50151 19.6046 2.9799 18.8145 2.43935V2.43838L18.5566 2.27041V2.27138Z" fill="black"/>
</svg>
