<svg width="31" height="24" viewBox="0 0 31 24" fill="none" xmlns="http://www.w3.org/2000/svg">
<path d="M9.91602 0.0126953C14.8988 0.265334 18.8613 4.38506 18.8613 9.43066L18.8486 9.91602C18.7624 11.6151 18.2254 13.1949 17.3564 14.54L30.3428 22.4443L29.8232 23.2988L16.7676 15.3525C15.0389 17.4917 12.3953 18.8613 9.43066 18.8613L8.94531 18.8486C4.12337 18.6042 0.257371 14.7379 0.0126953 9.91602L0 9.43066C0 4.22226 4.22226 0 9.43066 0L9.91602 0.0126953ZM9.43066 1C4.77455 1 1 4.77455 1 9.43066C1.00023 14.0866 4.77469 17.8613 9.43066 17.8613C14.0866 17.8613 17.8611 14.0866 17.8613 9.43066C17.8613 4.77455 14.0868 1.00001 9.43066 1Z" fill="black"/>
</svg>
